Poster: 
http://www.shotpix.com/images/52323291035770135480.jpg

Info:

Format : AVI
Format/Info : Audio Video Interleave
File size : 1.69 GiB
Duration : 1h 53mn
Overall bit rate : 2 135 Kbps

Video
ID : 0
Format : MPEG-4 Visual
Format profile : Advanced Simple@L5
Format settings, BVOP : 2
Format settings, QPel : No
Format settings, GMC : No warppoints
Format settings, Matrix : Default (H.263)
Muxing mode : Packed bitstream
Codec ID : XVID
Codec ID/Hint : XviD
Duration : 1h 53mn
Bit rate : 1 999 Kbps
Width : 688 pixels
Height : 288 pixels
Display aspect ratio : 2.40:1
Frame rate : 23.976 fps
Color space : YUV
Chroma subsampling : 4:2:0
Bit depth : 8 bits
Scan type : Progressive
Compression mode : Lossy
Bits/(Pixel*Frame) : 0.421
Stream size : 1.58 GiB (94%)
Writing library : XviD 64

Audio
ID : 1
Format : AC-3
Format/Info : Audio Coding 3
Mode extension : CM (complete main)
Format settings, Endianness : Big
Codec ID : 2000
Duration : 1h 53mn
Bit rate mode : Constant
Bit rate : 128 Kbps
Channel(s) : 2 channels
Channel positions : Front: L R
Sampling rate : 48.0 KHz
Bit depth : 16 bits
Compression mode : Lossy
Stream size : 104 MiB (6%)
Alignment : Aligned on interleaves
Interleave, duration : 64 ms (1.53 video frames)
Interleave, preload duration : 192 ms

SUBTiTLES: HC ENGLiSH & CHiNESE WHEN NEEDED AND THROUGH-OUT

NOTES: thought i would do this one again as a different rip from
the source dropped much better Q again now .. no jumpy fighting
scenes and runs nice and smooth plus it was in a mkv container
this time and no RVMB


Screens: 
http://www.shotpix.com/images/92248496807327912183.png 
http://www.shotpix.com/images/71318570449579926952.png 
http://www.shotpix.com/images/28844972256056555000.png 
http://www.shotpix.com/images/02256625928747506770.png 
http://www.shotpix.com/images/73929808955194144826.png 
http://www.shotpix.com/images/16089490112035530384.png





